<svg width="41" height="40" viewBox="0 0 41 40" fill="none" xmlns="http://www.w3.org/2000/svg">
<path d="M0 5.40229C0 5.40229 5.63953 1.39531 14.9708 0.202214C25.3213 -0.878309 34.6979 2.72346 34.6979 2.72346L33.656 6.34774C33.656 6.34774 25.5251 2.94858 14.9708 4.16417C9.03684 4.84761 3.89558 7.56335 3.89558 7.56335L0 5.40229Z" fill="url(#paint0_linear_966_881)"/>
<path d="M4.24561 11.0956C4.24561 11.0956 10.8557 6.78368 19.8653 6.78369C31.5688 6.7837 39.2201 12.7074 39.2201 12.7074L35.3718 14.6593C35.3718 14.6593 28.6712 10.4151 19.6616 10.869C9.4069 11.0956 2.02716 16.4523 2.02716 16.4523L4.24561 11.0956Z" fill="url(#paint1_linear_966_881)"/>
<path d="M0 5.45801L3.89136 7.60903C3.89136 7.60903 3.68775 8.17509 3.75562 9.3525C3.95924 10.5299 4.36647 10.9827 4.36647 10.9827L1.96831 16.5301C1.96831 16.5301 0.924417 15.7376 0.384611 12.1149C0 9.53364 0 5.45801 0 5.45801Z" fill="url(#paint2_linear_966_881)"/>
<path d="M39.2206 12.7095L35.3575 14.6561C35.3575 14.6561 34.4086 18.8888 32.0817 23.3026C29.7774 28.0332 25.5754 31.7453 25.5754 31.7453L25.7787 36.0233C25.7787 36.0233 31.2232 32.4923 35.109 25.2265C38.588 19.2962 39.2206 12.7095 39.2206 12.7095Z" fill="url(#paint3_linear_966_881)"/>
<path d="M18.4771 27.5107C17.3902 27.7145 16.3713 28.0541 16.3713 28.0541C16.3713 28.0541 17.1864 29.6844 17.7072 30.2279C18.3865 31.1336 19.7224 32.311 19.7224 32.311L19.7233 32.3104C19.9448 32.52 20.95 33.4446 22.4622 34.4395C23.934 35.3678 25.7454 35.9792 25.7454 35.9792L25.5416 31.7223C25.5416 31.7223 24.9064 31.7676 24.2057 31.2921C23.418 30.7577 23.1427 30.1012 23.1017 29.994L24.5453 28.0542C24.5453 28.0542 23.6396 27.7598 22.5754 27.556C21.5592 27.3302 20.4528 27.3296 20.447 27.3296C20.447 27.3296 19.5639 27.3069 18.4771 27.5107Z" fill="url(#paint4_linear_966_881)"/>
<path d="M26.696 18.4307C26.696 18.4307 27.8281 17.9778 28.8697 17.457C29.9113 16.9362 30.7943 16.3022 30.7943 16.3022C30.7943 16.3022 30.7828 17.8193 29.5037 20.7402C28.2246 23.6612 26.4243 25.4726 26.4243 25.4726L25.0204 21.5554C25.0204 21.5554 25.8808 20.7402 26.2205 20.0383C26.5601 19.3364 26.696 18.4307 26.696 18.4307Z" fill="url(#paint5_linear_966_881)"/>
<path d="M3.11932 19.7123C3.11932 19.7123 6.83724 15.0612 15.4066 14.067C23.9759 13.0728 30.7996 16.3481 30.7996 16.3481C30.7996 16.3481 29.9835 16.9348 28.9634 17.5219C27.9432 18.109 26.7643 18.4929 26.7643 18.4929C26.7643 18.4929 23.4998 17.1155 15.928 17.7703C10.4871 18.651 7.51734 20.8187 7.51734 20.8187L3.11932 19.7123Z" fill="url(#paint6_linear_966_881)"/>
<path d="M3.12514 19.6764L7.51785 20.7633C7.51785 20.7633 7.72164 22.1672 10.5293 26.3561C13.3371 30.545 17.2996 34.0093 17.2996 34.0093L14.2428 36.4548C14.2428 36.4548 10.235 32.8319 7.31407 28.5071C4.39314 24.1823 3.12514 19.6764 3.12514 19.6764Z" fill="url(#paint7_linear_966_881)"/>
<path d="M8.96649 23.9037C8.96649 23.9037 11.9568 21.7106 16.4875 21.0938C21.0182 20.477 25.0279 21.505 25.0279 21.505L26.4324 25.4571C26.4324 25.4571 21.6751 24.2463 17.5748 24.6804C13.4745 25.1144 10.9827 27.0566 10.9827 27.0566C10.9827 27.0566 10.3937 26.2342 9.94059 25.526C9.48752 24.8178 8.96649 23.9037 8.96649 23.9037Z" fill="url(#paint8_linear_966_881)"/>
<ellipse cx="18.7134" cy="37.8557" rx="2.10526" ry="2.14425" fill="url(#paint9_linear_966_881)"/>
<circle cx="38.6352" cy="6.5107" r="2.14425" fill="url(#paint10_linear_966_881)"/>
<defs>
<linearGradient id="paint0_linear_966_881" x1="32.5236" y1="3.78187" x2="0.42296" y2="0.956814" gradientUnits="userSpaceOnUse">
<stop offset="0.0968765" stop-color="#5F329F"/>
<stop offset="0.607078" stop-color="#EF6E85"/>
<stop offset="1" stop-color="#FF9764"/>
</linearGradient>
<linearGradient id="paint1_linear_966_881" x1="4.81154" y1="10.3247" x2="36.8036" y2="12.9113" gradientUnits="userSpaceOnUse">
<stop offset="0.0968765" stop-color="#5F329F"/>
<stop offset="0.582951" stop-color="#EF6E85"/>
<stop offset="1" stop-color="#FF9764"/>
</linearGradient>
<linearGradient id="paint2_linear_966_881" x1="4.99995" y1="13.9493" x2="-1.57716" y2="5.34166" gradientUnits="userSpaceOnUse">
<stop stop-color="#5F329F"/>
<stop offset="0.685342" stop-color="#FD6578"/>
<stop offset="1" stop-color="#FF9764"/>
</linearGradient>
<linearGradient id="paint3_linear_966_881" x1="29.0545" y1="38.4003" x2="49.8662" y2="14.5697" gradientUnits="userSpaceOnUse">
<stop stop-color="#5F329F"/>
<stop offset="0.589989" stop-color="#FD6578"/>
<stop offset="1" stop-color="#FF9764"/>
</linearGradient>
<linearGradient id="paint4_linear_966_881" x1="27.1054" y1="33.9628" x2="24.3562" y2="24.0761" gradientUnits="userSpaceOnUse">
<stop stop-color="#5F329F"/>
<stop offset="0.685342" stop-color="#FD6578"/>
<stop offset="1" stop-color="#FF9764"/>
</linearGradient>
<linearGradient id="paint5_linear_966_881" x1="28.8375" y1="16.4277" x2="26.0846" y2="26.8315" gradientUnits="userSpaceOnUse">
<stop stop-color="#5F329F"/>
<stop offset="0.523189" stop-color="#FD6578"/>
<stop offset="1" stop-color="#FF9764"/>
</linearGradient>
<linearGradient id="paint6_linear_966_881" x1="26.787" y1="14.632" x2="5.11211" y2="17.486" gradientUnits="userSpaceOnUse">
<stop offset="0.0968765" stop-color="#5F329F"/>
<stop offset="0.553757" stop-color="#EF6E85"/>
<stop offset="1" stop-color="#FF9764"/>
</linearGradient>
<linearGradient id="paint7_linear_966_881" x1="15.307" y1="34.9381" x2="4.14409" y2="19.9259" gradientUnits="userSpaceOnUse">
<stop stop-color="#5F329F"/>
<stop offset="0.685342" stop-color="#FD6578"/>
<stop offset="1" stop-color="#FF9764"/>
</linearGradient>
<linearGradient id="paint8_linear_966_881" x1="9.91794" y1="25.2747" x2="23.9894" y2="27.0274" gradientUnits="userSpaceOnUse">
<stop offset="0.0968765" stop-color="#5F329F"/>
<stop offset="0.627206" stop-color="#FD6578"/>
<stop offset="1" stop-color="#FF9764"/>
</linearGradient>
<linearGradient id="paint9_linear_966_881" x1="18.822" y1="35.9952" x2="18.822" y2="40.0002" gradientUnits="userSpaceOnUse">
<stop stop-color="#5F329F"/>
<stop offset="0.712171" stop-color="#FD6578"/>
<stop offset="1" stop-color="#FF9764"/>
</linearGradient>
<linearGradient id="paint10_linear_966_881" x1="38.7458" y1="4.65026" x2="38.7458" y2="8.6552" gradientUnits="userSpaceOnUse">
<stop stop-color="#5F329F"/>
<stop offset="0.712171" stop-color="#FD6578"/>
<stop offset="1" stop-color="#FF9764"/>
</linearGradient>
</defs>
</svg>
