<svg width="36" height="36" viewBox="0 0 36 36" fill="none" xmlns="http://www.w3.org/2000/svg">
<path fill-rule="evenodd" clip-rule="evenodd" d="M26.0999 3.5C24.9395 3.5 23.8267 3.96097 23.0061 4.78151C22.1856 5.60204 21.7246 6.71493 21.7246 7.87534C21.7246 9.03575 22.1856 10.1486 23.0061 10.9692C23.8267 11.7897 24.9395 12.2507 26.0999 12.2507C27.2604 12.2507 28.3732 11.7897 29.1938 10.9692C30.0143 10.1486 30.4753 9.03575 30.4753 7.87534C30.4753 6.71493 30.0143 5.60204 29.1938 4.78151C28.3732 3.96097 27.2604 3.5 26.0999 3.5ZM24.4203 6.19572C24.8658 5.75026 25.47 5.5 26.0999 5.5C26.7299 5.5 27.3341 5.75026 27.7796 6.19572C28.225 6.64118 28.4753 7.24536 28.4753 7.87534C28.4753 8.50532 28.225 9.10949 27.7796 9.55496C27.3341 10.0004 26.7299 10.2507 26.0999 10.2507C25.47 10.2507 24.8658 10.0004 24.4203 9.55496C23.9749 9.10949 23.7246 8.50532 23.7246 7.87534C23.7246 7.24536 23.9749 6.64118 24.4203 6.19572ZM15.7313 9.67187C15.4941 9.55862 15.2217 9.54337 14.9733 9.62942L9.57073 11.5007C9.04886 11.6815 8.77234 12.2511 8.9531 12.7729C9.13385 13.2948 9.70344 13.5713 10.2253 13.3906L15.2401 11.6536L20.798 14.3064L14.703 18.8495C14.4415 19.0444 14.2915 19.3545 14.301 19.6805C14.3105 20.0064 14.4783 20.3072 14.7507 20.4865L21.286 24.7891L17.2045 30.226C16.8729 30.6677 16.9622 31.2945 17.4039 31.6261C17.8456 31.9577 18.4724 31.8684 18.804 31.4267L23.524 25.1391C23.6897 24.9185 23.7568 24.6392 23.7095 24.3673C23.6622 24.0955 23.5047 23.8553 23.2742 23.7035L17.042 19.6005L23.3219 14.9195C23.6028 14.7102 23.7537 14.369 23.7195 14.0203C23.6854 13.6716 23.4713 13.3662 23.1551 13.2153L15.7313 9.67187ZM32.185 13.6442C32.5874 13.266 32.6071 12.6332 32.2289 12.2307C31.8507 11.8282 31.2179 11.8085 30.8154 12.1867L27.2935 15.496L26.1185 14.8568C25.6333 14.5929 25.0261 14.7722 24.7622 15.2574C24.4982 15.7425 24.6776 16.3497 25.1627 16.6137L26.9733 17.5986C27.3525 17.8049 27.8213 17.7445 28.1359 17.4489L32.185 13.6442ZM13.9679 23.0244C14.3018 22.5846 14.216 21.9572 13.7761 21.6233C13.3362 21.2893 12.7089 21.3752 12.375 21.8151L10.4958 24.2903L4.0109 27.9284C3.52924 28.1986 3.35783 28.8081 3.62805 29.2898C3.89827 29.7714 4.50779 29.9428 4.98945 29.6726L11.6557 25.9327C11.7754 25.8656 11.88 25.7746 11.9629 25.6653L13.9679 23.0244Z" fill="black"/>
</svg>
